<?xml version="1.0" encoding="UTF-8"?>
<svg version="1.1" xmlns="http://www.w3.org/2000/svg" width="1024" height="1024">
<path d="M0 0 C1.16781006 0.00523682 2.33562012 0.01047363 3.53881836 0.01586914 C4.79887695 0.0190918 6.05893555 0.02231445 7.35717773 0.02563477 C8.6976732 0.03399136 10.03816799 0.04245632 11.37866211 0.05102539 C12.72306153 0.05603879 14.06746271 0.06060197 15.41186523 0.06469727 C18.71334151 0.07653051 22.01473014 0.09301568 25.31616211 0.11352539 C25.31616211 0.77352539 25.31616211 1.43352539 25.31616211 2.11352539 C26.00838867 2.12770508 26.70061523 2.14188477 27.41381836 2.15649414 C40.8166234 2.80985881 52.58946806 7.08537072 63.31616211 15.11352539 C64.48405273 15.97204102 64.48405273 15.97204102 65.67553711 16.84790039 C72.53343452 22.38151416 77.08975909 29.47339368 81.31616211 37.11352539 C81.83267334 38.04293945 82.34918457 38.97235352 82.88134766 39.92993164 C88.45641522 50.48248603 92.13283084 61.5580527 95.87866211 72.86352539 C96.57733118 74.94690829 97.27689098 77.02999267 97.97729492 79.11279297 C99.75968857 84.4213857 101.52988984 89.73395107 103.29620361 95.0479126 C104.87368738 99.78923731 106.46060274 104.52739747 108.04663086 109.26586914 C111.75037871 120.34094712 115.43199375 131.42334484 119.11047363 142.50683594 C120.88568928 147.85545853 122.6621819 153.20365363 124.44116211 158.55102539 C124.68547974 159.28549896 124.92979736 160.01997253 125.18151855 160.77670288 C129.07298769 172.46673674 133.04919256 184.12624368 137.06066895 195.77557373 C142.2111314 210.73730744 147.23296613 225.74098436 152.20623779 240.76248169 C153.45950493 244.54607647 154.72383518 248.32562613 156.00073242 252.10131836 C156.4179808 253.33959633 156.4179808 253.33959633 156.84365845 254.60289001 C157.38301295 256.20264748 157.92473044 257.8016107 158.46908569 259.39967346 C160.31616211 264.88921659 160.31616211 264.88921659 160.31616211 267.11352539 C160.97616211 267.44352539 161.63616211 267.77352539 162.31616211 268.11352539 C162.75300697 270.11242157 163.18277387 272.11298909 163.58862305 274.1184082 C164.47996638 277.78787131 165.67413302 281.32578308 166.91772461 284.88696289 C167.16004822 285.58194885 167.40237183 286.27693481 167.65203857 286.99298096 C168.41136451 289.15949126 169.17548362 291.32425259 169.94116211 293.48852539 C170.95953842 296.3694917 171.97163537 299.25255803 172.98022461 302.13696289 C173.3317308 303.12132828 173.3317308 303.12132828 173.69033813 304.12557983 C174.67334565 306.93697113 175.31616211 309.10893805 175.31616211 312.11352539 C175.97616211 312.44352539 176.63616211 312.77352539 177.31616211 313.11352539 C177.69237571 314.77103926 178.01487849 316.44076807 178.31616211 318.11352539 C179.05070161 320.47272084 179.81962358 322.82130957 180.61010742 325.16235352 C180.84296448 325.85467575 181.07582153 326.54699799 181.31573486 327.26029968 C182.08885902 329.55616971 182.86646965 331.85049154 183.64428711 334.14477539 C184.19484549 335.77528094 184.74519531 337.40585692 185.29534912 339.03649902 C186.45690409 342.47706533 187.62060779 345.91689506 188.78588867 349.35620117 C190.23807527 353.64265061 191.68569425 357.93062369 193.13178062 362.21913433 C198.85407848 379.18472498 204.62540983 396.13341498 210.52983856 413.03659058 C211.08109502 414.61559253 211.63103406 416.19505518 212.17951202 417.77502441 C217.51237473 433.12124875 223.11756268 448.26120876 233.31616211 461.11352539 C234.05866211 462.16540039 234.80116211 463.21727539 235.56616211 464.30102539 C249.26152973 478.30765137 266.95986894 478.82429284 285.31616211 479.11352539 C286.60851926 484.02855297 286.42751728 488.88642641 286.37866211 493.92602539 C286.37415039 494.80967773 286.36963867 495.69333008 286.36499023 496.60375977 C286.35326077 498.77371098 286.33532706 500.94362711 286.31616211 503.11352539 C275.86265656 507.13582817 265.75347516 509.22474707 254.62866211 510.30102539 C253.76217041 510.38489502 252.89567871 510.46876465 252.00292969 510.55517578 C229.15280617 512.56466867 206.27982502 509.8308261 188.06616211 494.73852539 C184.76133432 491.73474467 182.10806306 488.46011082 179.54272461 484.81274414 C178.28723162 482.97827419 178.28723162 482.97827419 176.31616211 481.11352539 C175.03912713 478.73266247 173.81775918 476.35024909 172.62866211 473.92602539 C172.10453735 472.86593262 172.10453735 472.86593262 171.56982422 471.78442383 C169.13187939 466.8304055 166.73453528 461.85708069 164.37866211 456.86352539 C164.08451416 456.24453369 163.79036621 455.62554199 163.48730469 454.98779297 C162.11322779 452.0428769 161.07972822 449.25993756 160.31616211 446.11352539 C159.87506229 444.72405726 159.41837586 443.33947572 158.94921875 441.95922852 C158.53857933 440.74777161 158.53857933 440.74777161 158.11964417 439.51184082 C157.82484665 438.64820923 157.53004913 437.78457764 157.22631836 436.89477539 C156.92173203 435.99988403 156.61714569 435.10499268 156.30332947 434.1829834 C155.65944944 432.29316735 155.0146991 430.40364764 154.36914062 428.5144043 C153.38270734 425.62537292 152.4010571 422.73474559 151.41967773 419.84399414 C150.7930163 418.00665505 150.1660726 416.16941219 149.53881836 414.33227539 C149.24604507 413.4686438 148.95327179 412.60501221 148.65162659 411.71520996 C148.37471481 410.90757202 148.09780304 410.09993408 147.8125 409.26782227 C147.57124893 408.56040894 147.32999786 407.85299561 147.08143616 407.12414551 C146.28839896 405.0405827 145.31536797 403.10461781 144.31616211 401.11352539 C143.88785364 399.49967313 143.50378391 397.873849 143.14819336 396.24243164 C141.00159075 387.37346778 137.97362051 378.7920364 135.0526123 370.15396118 C133.24362516 364.80273385 131.45066842 359.44613273 129.65600586 354.09008789 C129.29048615 353.00035172 128.92496643 351.91061554 128.54837036 350.78785706 C124.99621827 340.18605155 121.51893435 329.56054924 118.06616211 318.92602539 C117.77972839 318.04447784 117.49329468 317.1629303 117.19818115 316.25466919 C114.43869918 307.76056268 111.6877187 299.26371134 108.93952942 290.76594543 C107.66981181 286.83995371 106.39948177 282.91416052 105.12866211 278.98852539 C104.88505951 278.23590424 104.64145691 277.48328308 104.39047241 276.70785522 C99.53823646 261.72499078 94.57027293 246.78178162 89.56665039 231.84887695 C87.47668677 225.60591652 85.39655043 219.35968196 83.31616211 213.11352539 C80.72716789 215.39177188 79.62990189 217.36875237 78.48535156 220.60522461 C77.99161293 221.98134666 77.99161293 221.98134666 77.48789978 223.38526917 C77.13860916 224.38614059 76.78931854 225.38701202 76.42944336 226.41821289 C76.05562027 227.46754501 75.68179718 228.51687714 75.29664612 229.5980072 C74.06592646 233.05871255 72.84731213 236.52355339 71.62866211 239.98852539 C70.77089392 242.40767065 69.91232384 244.82653172 69.05297852 247.24511719 C67.30272061 252.17510033 65.55714683 257.10670185 63.81567383 262.03979492 C61.58820476 268.34813636 59.34831698 274.65196109 57.10131836 280.95336914 C51.68003953 296.16150263 46.28354168 311.37839197 40.89428711 326.59790039 C40.52449234 327.64216187 40.15469757 328.68642334 39.7736969 329.7623291 C37.94352863 334.93107436 36.11426522 340.10013704 34.28662109 345.26977539 C31.22053671 353.93916315 28.14841464 362.6058789 25.02319336 371.25415039 C24.7797821 371.92913071 24.53637085 372.60411102 24.2855835 373.29954529 C23.19820534 376.31464448 22.10667574 379.32806618 21.00610352 382.33837891 C20.64307129 383.34312256 20.28003906 384.34786621 19.90600586 385.38305664 C19.59526123 386.23488525 19.2845166 387.08671387 18.96435547 387.96435547 C18.17178488 390.21809518 18.17178488 390.21809518 18.31616211 393.11352539 C17.65616211 393.11352539 16.99616211 393.11352539 16.31616211 393.11352539 C16.11603516 394.20991081 16.11603516 394.20991081 15.91186523 395.32844543 C15.36542191 397.88322193 14.6626218 400.21783681 13.78491211 402.67480469 C13.47334167 403.55249008 13.16177124 404.43017548 12.84075928 405.3344574 C12.50264221 406.27604202 12.16452515 407.21762665 11.81616211 408.18774414 C11.46467102 409.1755336 11.11317993 410.16332306 10.7510376 411.18104553 C9.60907309 414.38878119 8.46256908 417.59487507 7.31616211 420.80102539 C5.74684298 425.20540054 4.17990439 429.61062124 2.61303711 434.01586914 C2.0400589 435.62535934 2.0400589 435.62535934 1.45550537 437.2673645 C-1.21853312 444.78467582 -3.84884433 452.31509077 -6.43383789 459.86352539 C-9.80118944 469.66540278 -13.2762706 479.42750922 -16.78552246 489.17932129 C-17.38106276 490.83451708 -17.97571821 492.49003152 -18.56945801 494.14587402 C-19.39625455 496.44998638 -20.22691154 498.75266727 -21.05883789 501.05493164 C-21.30941956 501.75455521 -21.56000122 502.45417877 -21.81817627 503.17500305 C-23.56909189 507.99877939 -23.56909189 507.99877939 -24.68383789 509.11352539 C-27.45322756 509.20870342 -30.19760948 509.23906804 -32.96728516 509.22705078 C-34.26960587 509.22726982 -34.26960587 509.22726982 -35.59823608 509.22749329 C-38.48226375 509.22679385 -41.36622769 509.21900002 -44.25024414 509.21118164 C-46.24421656 509.20931757 -48.23818944 509.20789362 -50.23216248 509.20689392 C-55.49129491 509.20306787 -60.75039992 509.19323684 -66.00952148 509.18218994 C-71.37165964 509.17197769 -76.7338022 509.1673967 -82.09594727 509.16235352 C-92.62525816 509.15161465 -103.15454146 509.13401715 -113.68383789 509.11352539 C-113.68383789 501.52352539 -113.68383789 493.93352539 -113.68383789 486.11352539 C-110.89946289 485.37102539 -108.11508789 484.62852539 -105.24633789 483.86352539 C-92.13184737 480.2680894 -80.68662381 475.93598042 -73.28417969 463.82324219 C-71.84545364 461.19348855 -70.47249976 458.53933316 -69.12133789 455.86352539 C-68.60667969 454.85829834 -68.09202148 453.85307129 -67.56176758 452.81738281 C-65.91991731 449.5904774 -64.29815914 446.35428377 -62.68383789 443.11352539 C-62.16901855 442.08114746 -61.65419922 441.04876953 -61.1237793 439.98510742 C-46.36664935 410.21440452 -33.38979662 379.63076171 -20.53230286 349.004776 C-20.14145004 348.07386642 -19.75059723 347.14295685 -19.34790039 346.18383789 C-18.76530708 344.79623512 -18.76530708 344.79623512 -18.17094421 343.38059998 C-15.52513338 337.08858922 -12.84680509 330.81127415 -10.14477539 324.54321289 C-9.78942215 323.71831863 -9.43406891 322.89342438 -9.06794739 322.04353333 C-7.40052979 318.17528443 -5.72856223 314.30907708 -4.05078125 310.4453125 C-3.46611764 309.09127452 -2.88155708 307.73719204 -2.29711914 306.38305664 C-1.53588745 304.62892456 -1.53588745 304.62892456 -0.75927734 302.83935547 C0.43849721 300.29183752 0.43849721 300.29183752 0.31616211 298.11352539 C0.97616211 298.11352539 1.63616211 298.11352539 2.31616211 298.11352539 C2.8440332 296.40616211 2.8440332 296.40616211 3.38256836 294.66430664 C5.92403531 287.05177488 9.14849577 279.69608098 12.25366211 272.30102539 C12.920611 270.70483651 13.58735686 269.10856278 14.25390625 267.51220703 C17.45157782 259.86631727 20.68057214 252.23499565 23.97241211 244.62915039 C24.39484947 243.65157524 24.39484947 243.65157524 24.82582092 242.6542511 C26.14593327 239.60149584 27.47274862 236.55212675 28.81005859 233.50683594 C29.50723999 231.90255737 29.50723999 231.90255737 30.21850586 230.26586914 C30.62576904 229.33766357 31.03303223 228.40945801 31.45263672 227.453125 C32.48929149 225.06010137 32.48929149 225.06010137 32.31616211 222.11352539 C32.97616211 222.11352539 33.63616211 222.11352539 34.31616211 222.11352539 C34.4869075 221.57500443 34.65765289 221.03648346 34.83357239 220.48164368 C36.70715194 214.70315118 38.89126321 209.12063823 41.26538086 203.53149414 C41.64169144 202.63723221 42.01800201 201.74297028 42.40571594 200.8216095 C43.60189075 197.98007856 44.80242633 195.14042011 46.00366211 192.30102539 C46.78981837 190.43984463 47.57562814 188.57851747 48.36108398 186.71704102 C48.7490062 185.80013992 49.13692841 184.88323883 49.53660583 183.93855286 C50.31679383 182.07747484 51.0863279 180.21189609 51.84535217 178.34208679 C53.6852121 173.82999487 55.602234 169.49307664 57.95654297 165.22412109 C63.281162 155.0834968 63.88318958 148.11219775 60.54663086 137.07055664 C58.98037449 132.31042431 57.25293061 127.62138454 55.50366211 122.92602539 C54.63128595 120.44103924 53.76510962 117.95386821 52.9050293 115.46459961 C51.20387988 110.56653917 49.47038346 105.68213098 47.70629883 100.80639648 C45.63801241 95.06436627 43.69763782 89.29360585 41.85131836 83.47680664 C41.60492111 82.70542862 41.35852386 81.9340506 41.10466003 81.13929749 C40.21472093 78.35110348 39.32617856 75.5624967 38.44540405 72.77139282 C33.69049059 57.82982735 27.41336913 46.67696714 13.31616211 39.11352539 C2.47576192 34.72005923 -8.68603733 34.97946792 -20.18383789 35.05102539 C-21.59269047 35.05605006 -23.00154478 35.06061126 -24.41040039 35.06469727 C-27.83489815 35.076425 -31.25937368 35.09435861 -34.68383789 35.11352539 C-34.68383789 26.20352539 -34.68383789 17.29352539 -34.68383789 8.11352539 C-26.6262992 5.09194838 -19.34474562 2.65768814 -10.68383789 3.11352539 C-10.35383789 2.45352539 -10.02383789 1.79352539 -9.68383789 1.11352539 C-8.22977539 1.14446289 -8.22977539 1.14446289 -6.74633789 1.17602539 C-3.31532084 1.10600463 -3.29225407 0.13926118 0 0 Z M82.31616211 209.11352539 C81.98616211 210.10352539 81.65616211 211.09352539 81.31616211 212.11352539 C81.97616211 212.11352539 82.63616211 212.11352539 83.31616211 212.11352539 C82.98616211 211.12352539 82.65616211 210.13352539 82.31616211 209.11352539 Z " fill="#365280" transform="translate(430.683837890625,222.886474609375)"/>
<path d="M0 0 C4.51617599 -0.07654536 8.59085217 -0.10228696 13 1 C13 1.66 13 2.32 13 3 C8.38 3 3.76 3 -1 3 C-0.67 2.01 -0.34 1.02 0 0 Z " fill="#2E456C" transform="translate(428,223)"/>
<path d="M0 0 C2.84323425 2.46802739 4.15880824 5.08454454 5.6875 8.5 C6.34298828 9.93859375 6.34298828 9.93859375 7.01171875 11.40625 C8 14 8 14 8 17 C7.34 17 6.68 17 6 17 C4.99580363 14.5433053 3.99649499 12.08481647 3 9.625 C2.71382812 8.92632812 2.42765625 8.22765625 2.1328125 7.5078125 C0 2.2265625 0 2.2265625 0 0 Z " fill="#3D5884" transform="translate(513,265)"/>
<path d="M0 0 C0.33 0.66 0.66 1.32 1 2 C3.97 2 6.94 2 10 2 C9.195625 2.763125 8.39125 3.52625 7.5625 4.3125 C4.83200976 6.79430898 4.83200976 6.79430898 4 10 C0 3.375 0 3.375 0 0 Z " fill="#3D5887" transform="translate(601,689)"/>
<path d="M0 0 C0.66 0.33 1.32 0.66 2 1 C1.53199289 5.05606165 1.12046792 8.46588679 -1 12 C-1.66 10.68 -2.32 9.36 -3 8 C-2.34 7.67 -1.68 7.34 -1 7 C-1.66 5.68 -2.32 4.36 -3 3 C-2.01 2.01 -1.02 1.02 0 0 Z " fill="#3C5887" transform="translate(449,602)"/>
<path d="M0 0 C3.65190574 2.43460383 3.91974717 3.84518143 5 8 C5 9.32 5 10.64 5 12 C4.34 12 3.68 12 3 12 C1.19682779 8.03302114 0.50797009 4.3177458 0 0 Z " fill="#3D5988" transform="translate(533,322)"/>
<path d="M0 0 C4 0 4 0 6.5 2.25 C7.325 3.1575 8.15 4.065 9 5 C10.1446875 6.1446875 10.1446875 6.1446875 11.3125 7.3125 C11.869375 7.869375 12.42625 8.42625 13 9 C9.02348017 9 7.85083826 7.55718178 4.8125 5.0625 C3.91144531 4.33160156 3.01039063 3.60070312 2.08203125 2.84765625 C1.39496094 2.23792969 0.70789063 1.62820313 0 1 C0 0.67 0 0.34 0 0 Z " fill="#3E5A88" transform="translate(447,262)"/>
<path d="M0 0 C1.12377697 3.30435084 0.89554742 5.0506862 -0.4375 8.25 C-0.72496094 8.95640625 -1.01242187 9.6628125 -1.30859375 10.390625 C-1.53675781 10.92171875 -1.76492188 11.4528125 -2 12 C-2.66 12 -3.32 12 -4 12 C-4.33 10.68 -4.66 9.36 -5 8 C-4.01 7.67 -3.02 7.34 -2 7 C-1.855625 6.21625 -1.71125 5.4325 -1.5625 4.625 C-1 2 -1 2 0 0 Z " fill="#3D5884" transform="translate(421,685)"/>
<path d="M0 0 C1.06528748 2.73019786 1.07998186 3.79298812 0.00390625 6.578125 C-0.47175781 7.45984375 -0.94742187 8.3415625 -1.4375 9.25 C-1.91058594 10.14203125 -2.38367188 11.0340625 -2.87109375 11.953125 C-3.24363281 12.62859375 -3.61617188 13.3040625 -4 14 C-5.06528748 11.26980214 -5.07998186 10.20701188 -4.00390625 7.421875 C-3.52824219 6.54015625 -3.05257813 5.6584375 -2.5625 4.75 C-2.08941406 3.85796875 -1.61632812 2.9659375 -1.12890625 2.046875 C-0.75636719 1.37140625 -0.38382812 0.6959375 0 0 Z " fill="#3E5886" transform="translate(398,602)"/>
<path d="M0 0 C1.10732122 3.32196365 0.85064093 4.68250039 0 8 C-0.33 8.66 -0.66 9.32 -1 10 C-1.66 10 -2.32 10 -3 10 C-3.33 10.66 -3.66 11.32 -4 12 C-3.5317879 7.22423661 -2.75668002 3.95523655 0 0 Z " fill="#3D5885" transform="translate(407,581)"/>
<path d="M0 0 C1.37095624 3.69037278 0.60010967 5.70883835 -0.9375 9.25 C-1.31777344 10.14203125 -1.69804687 11.0340625 -2.08984375 11.953125 C-2.39019531 12.62859375 -2.69054687 13.3040625 -3 14 C-4.55831174 8.30980105 -2.70383618 5.17255617 0 0 Z " fill="#3D5886" transform="translate(479,521)"/>
<path d="M0 0 C0.66 0.33 1.32 0.66 2 1 C1.34 2.32 0.68 3.64 0 5 C1.32 5.66 2.64 6.32 4 7 C-2.75 6.125 -2.75 6.125 -5 5 C-5 4.34 -5 3.68 -5 3 C-2.625 1.3125 -2.625 1.3125 0 0 Z " fill="#3A5788" transform="translate(432,251)"/>
<path d="M0 0 C0.89203125 0.10183594 1.7840625 0.20367188 2.703125 0.30859375 C3.37859375 0.39238281 4.0540625 0.47617187 4.75 0.5625 C4.42 1.2225 4.09 1.8825 3.75 2.5625 C2.14620659 2.61666188 0.54188594 2.65536638 -1.0625 2.6875 C-1.95582031 2.71070313 -2.84914063 2.73390625 -3.76953125 2.7578125 C-6.25 2.5625 -6.25 2.5625 -9.25 0.5625 C-5.98086376 -0.46865279 -3.38958652 -0.4013984 0 0 Z " fill="#354C74" transform="translate(671.25,731.4375)"/>
<path d="M0 0 C0.99 0.495 0.99 0.495 2 1 C4.38056989 8.64288227 4.38056989 8.64288227 3 13 C0.78145293 8.37802694 -0.38281159 5.23175837 0 0 Z " fill="#3C5888" transform="translate(525,463)"/>
<path d="M0 0 C0.99 0.495 0.99 0.495 2 1 C2.4140625 3.06640625 2.4140625 3.06640625 2.625 5.5625 C2.69976563 6.38878906 2.77453125 7.21507812 2.8515625 8.06640625 C2.92503906 9.02353516 2.92503906 9.02353516 3 10 C-0.00617269 6.99382731 0.40414684 4.17618402 0 0 Z M-1 7 C-0.34 7.33 0.32 7.66 1 8 C1 8.66 1 9.32 1 10 C0.01 10 -0.98 10 -2 10 C-1.67 9.01 -1.34 8.02 -1 7 Z " fill="#3D5985" transform="translate(601,522)"/>
<path d="M0 0 C0.66 0.33 1.32 0.66 2 1 C1.49287967 4.71888239 0.88391785 7.73454239 -1 11 C-1.99528744 8.01413769 -2.23314275 6.10857 -2 3 C-1.34 2.01 -0.68 1.02 0 0 Z " fill="#3D5887" transform="translate(508,437)"/>
<path d="M0 0 C1.6415049 3.2830098 0.51888624 6.42545033 0 10 C-0.99 10 -1.98 10 -3 10 C-3.33 10.66 -3.66 11.32 -4 12 C-3.5317879 7.22423661 -2.75668002 3.95523655 0 0 Z " fill="#3D5986" transform="translate(475,421)"/>
<path d="M0 0 C2 1 2 1 3.125 3.75 C3.91973395 6.70186896 4.17810598 8.97219837 4 12 C1 10 1 10 0.48828125 7.6171875 C0.40126953 6.25980469 0.40126953 6.25980469 0.3125 4.875 C0.24675781 3.96492188 0.18101562 3.05484375 0.11328125 2.1171875 C0.07589844 1.41851562 0.03851562 0.71984375 0 0 Z " fill="#3D5986" transform="translate(523,290)"/>
<path d="M0 0 C2 2 2 2 2 6 C2.66 6 3.32 6 4 6 C4 7.98 4 9.96 4 12 C2 11 2 11 0.875 8.25 C0.08026605 5.29813104 -0.17810598 3.02780163 0 0 Z " fill="#3D5987" transform="translate(543,519)"/>
<path d="M0 0 C1.5 1.375 1.5 1.375 3 3 C3 3.66 3 4.32 3 5 C2.34 5 1.68 5 1 5 C1.33 6.65 1.66 8.3 2 10 C1.34 9.67 0.68 9.34 0 9 C-1.28571429 2.57142857 -1.28571429 2.57142857 0 0 Z " fill="#3D5A88" transform="translate(590,657)"/>
<path d="M0 0 C0.66 0 1.32 0 2 0 C1.34 2.97 0.68 5.94 0 9 C-0.99 8.67 -1.98 8.34 -3 8 C-3 7.34 -3 6.68 -3 6 C-2.34 6 -1.68 6 -1 6 C-0.67 4.02 -0.34 2.04 0 0 Z " fill="#3C5784" transform="translate(488,494)"/>
<path d="M0 0 C0.75 1.5625 0.75 1.5625 1 4 C-0.13084437 6.50286409 -1.52139516 8.67007722 -3 11 C-3.75 9.4375 -3.75 9.4375 -4 7 C-2.86915563 4.49713591 -1.47860484 2.32992278 0 0 Z " fill="#3D5885" transform="translate(374,655)"/>
<path d="M0 0 C0.66 0 1.32 0 2 0 C1.54177532 3.46941546 1.10868317 6.67395049 0 10 C-0.66 10 -1.32 10 -2 10 C-1.34 6.7 -0.68 3.4 0 0 Z " fill="#3F5985" transform="translate(444,617)"/>
<path d="M0 0 C0.33 0 0.66 0 1 0 C0.38461538 6.52307692 0.38461538 6.52307692 -1.5625 8.9375 C-2.036875 9.288125 -2.51125 9.63875 -3 10 C-2.25 3.375 -2.25 3.375 0 0 Z " fill="#3C5885" transform="translate(469,435)"/>
<path d="M0 0 C0.66 1.32 1.32 2.64 2 4 C2.66 4 3.32 4 4 4 C3.67 5.65 3.34 7.3 3 9 C2.34 8.67 1.68 8.34 1 8 C0.40644386 5.35139573 0.25790731 2.70802678 0 0 Z " fill="#3C5785" transform="translate(483,334)"/>
<path d="M0 0 C3.37503669 1.1858237 5.64722731 2.27573689 8 5 C7.01 5.33 6.02 5.66 5 6 C5 5.34 5 4.68 5 4 C4.01 4.33 3.02 4.66 2 5 C1.34 3.35 0.68 1.7 0 0 Z " fill="#3D5989" transform="translate(489,236)"/>
<path d="M0 0 C0.99 0 1.98 0 3 0 C2.67 2.31 2.34 4.62 2 7 C1.01 6.67 0.02 6.34 -1 6 C-1 5.34 -1 4.68 -1 4 C-0.34 4 0.32 4 1 4 C0.67 2.68 0.34 1.36 0 0 Z " fill="#3E5B8B" transform="translate(454,586)"/>
<path d="M0 0 C0.66 0 1.32 0 2 0 C1.46930939 3.82097239 0.50298434 6.06171403 -2 9 C-1.51421457 5.87709365 -1.0013988 3.00419641 0 0 Z " fill="#3E5987" transform="translate(431,523)"/>
<path d="M0 0 C1.65 0 3.3 0 5 0 C5 0.33 5 0.66 5 1 C3.35 1 1.7 1 0 1 C0 0.67 0 0.34 0 0 Z " fill="#131617" transform="translate(413,224)"/>
<path d="M0 0 C2 1 2 1 2 1 Z " fill="#141A19" transform="translate(693,733)"/>
<path d="M0 0 C2 1 2 1 2 1 Z " fill="#131717" transform="translate(329,704)"/>
<path d="" fill="#151C1D" transform="translate(0,0)"/>
<path d="" fill="#050B10" transform="translate(0,0)"/>
<path d="" fill="#050B11" transform="translate(0,0)"/>
<path d="" fill="#03070D" transform="translate(0,0)"/>
<path d="" fill="#01090F" transform="translate(0,0)"/>
<path d="" fill="#030B11" transform="translate(0,0)"/>
<path d="" fill="#02080F" transform="translate(0,0)"/>
<path d="" fill="#02080D" transform="translate(0,0)"/>
<path d="" fill="#090C0E" transform="translate(0,0)"/>
<path d="" fill="#061114" transform="translate(0,0)"/>
<path d="" fill="#0F1717" transform="translate(0,0)"/>
<path d="" fill="#0D1416" transform="translate(0,0)"/>
<path d="" fill="#070B11" transform="translate(0,0)"/>
<path d="" fill="#070D11" transform="translate(0,0)"/>
<path d="" fill="#061013" transform="translate(0,0)"/>
<path d="" fill="#050E12" transform="translate(0,0)"/>
<path d="" fill="#050C11" transform="translate(0,0)"/>
<path d="" fill="#0B0E12" transform="translate(0,0)"/>
<path d="" fill="#0A1413" transform="translate(0,0)"/>
<path d="" fill="#090F13" transform="translate(0,0)"/>
</svg>
